Coordinates
version=1
nRows=11
nColumns=40
inDegrees=yes

Units are S.I. units (second, meters, Newtons, ...)
Angles are in degrees.

endheader
time	pelvis_tilt	pelvis_list	pelvis_rotation	pelvis_tx	pelvis_ty	pelvis_tz	hip_flexion_r	hip_adduction_r	hip_rotation_r	knee_angle_r	knee_angle_r_beta	ankle_angle_r	subtalar_angle_r	mtp_angle_r	hip_flexion_l	hip_adduction_l	hip_rotation_l	knee_angle_l	knee_angle_l_beta	ankle_angle_l	subtalar_angle_l	mtp_angle_l	lumbar_extension	lumbar_bending	lumbar_rotation	arm_flex_r	arm_add_r	arm_rot_r	elbow_flex_r	pro_sup_r	wrist_flex_r	wrist_dev_r	arm_flex_l	arm_add_l	arm_rot_l	elbow_flex_l	pro_sup_l	wrist_flex_l	wrist_dev_l
      0.00000000	     -5.15747683	      0.07908524	    -33.49236568	     -1.60781670	      0.86310503	      1.29459094	      3.79391227	     -5.60966319	    -17.40857700	    -52.41499487	     -0.91481424	    -19.31914501	    -11.01053614	     12.64530210	     30.06991413	      1.78218658	     25.33059536	    -34.30396353	     -0.59871711	     13.38368100	     18.34323017	     18.04909426	     -1.99319845	      1.57321992	     -0.15251223	     -3.42714372	     -8.28981642	    -14.50499962	     34.21565230	     89.95437384	      0.00000000	      0.00000000	     -6.02386720	      7.38445173	     15.70968896	     26.40590378	     89.95437384	      0.00000000	      0.00000000
      0.01000000	     -5.01369749	     -0.04464988	    -32.35794577	     -1.59957738	      0.86405807	      1.29741106	      4.74313481	     -5.60509437	    -16.54052782	    -54.42013591	     -0.94981055	    -19.68766253	    -11.53262840	     12.58832584	     29.29389673	      1.27072154	     24.75268337	    -34.27603061	     -0.59822959	     13.82362007	     18.23218690	     17.57896416	     -2.20712210	      1.45282043	     -0.71351791	     -3.72076368	     -8.16545955	    -14.66652351	     33.66150637	     89.95437384	      0.00000000	      0.00000000	     -5.60102441	      7.59152936	     15.57454247	     26.80086246	     89.95437384	      0.00000000	      0.00000000
      0.02000000	     -4.94224819	      0.20403995	    -31.23593230	     -1.59125959	      0.86463892	      1.30002767	      6.07025120	     -5.92380909	    -15.83137144	    -56.39187977	     -0.98422397	    -19.50664398	    -13.23792759	     12.75771659	     28.60143861	      0.42196443	     24.28401978	    -33.84934876	     -0.59078259	     14.23505915	     18.08459867	     17.11476744	     -2.10961463	      1.03152757	     -1.31103640	     -4.04093385	     -7.99204553	    -14.88560720	     33.03656104	     89.95437384	      0.00000000	      0.00000000	     -5.30314407	      7.81689332	     15.42311877	     27.32273747	     89.95437384	      0.00000000	      0.00000000
      0.03000000	     -4.91017087	      0.41346800	    -30.13838910	     -1.58313649	      0.86527416	      1.30259757	      7.44576853	     -6.22937315	    -15.41362293	    -58.17158078	     -1.01528562	    -19.19966028	    -15.02257797	     13.83841329	     27.91945777	     -0.24281050	     24.05694336	    -33.48240559	     -0.58437822	     14.18886630	     18.03890561	     16.57197743	     -2.02758547	      0.67951797	     -1.84302300	     -4.36083846	     -7.82991023	    -15.14757252	     32.42981856	     89.95437384	      0.00000000	      0.00000000	     -4.96943444	      8.07736702	     15.20341704	     27.90148927	     89.95437384	      0.00000000	      0.00000000
      0.04000000	     -4.78646757	      0.42586137	    -29.11807023	     -1.57505756	      0.86624886	      1.30539932	      8.61359720	     -6.22424953	    -14.73010586	    -59.81132532	     -1.04390456	    -17.18743992	    -15.82818907	     20.17347880	     26.97340571	     -0.70363200	     23.87140025	    -33.05381071	     -0.57689783	     14.23025131	     17.81576761	     14.16294464	     -2.15583429	      0.46599678	     -2.32789292	     -4.55987297	     -7.68603215	    -15.39347440	     31.66614717	     89.95437384	      0.00000000	      0.00000000	     -4.57937413	      8.26507728	     15.29976047	     28.41489394	     89.95437384	      0.00000000	      0.00000000
      0.05000000	     -4.66172886	      0.34936733	    -28.08775196	     -1.56696772	      0.86732352	      1.30814601	      9.60246071	     -6.14661437	    -14.14432803	    -60.97743751	     -1.06425705	    -15.70588908	    -16.68716785	     19.87413020	     25.95630651	     -1.11002721	     23.53421822	    -32.55562058	     -0.56820277	     14.75377407	     17.41711291	     13.77561701	     -2.33311761	      0.35134231	     -2.79152444	     -4.74505593	     -7.57438171	    -15.61279061	     30.87634434	     89.95437384	      0.00000000	      0.00000000	     -4.10825030	      8.46182064	     15.32378232	     28.88246034	     89.95437384	      0.00000000	      0.00000000
      0.06000000	     -4.58876476	      0.45945061	    -27.05529825	     -1.55916260	      0.86826605	      1.31052376	     10.88332596	     -6.34219754	    -13.72197557	    -62.19537072	     -1.08551400	    -13.97052411	    -17.09138545	     19.86037996	     25.10758828	     -1.69096979	     23.10926359	    -32.03357686	     -0.55909139	     14.86407545	     17.16916920	     13.14660212	     -2.41558061	      0.09712851	     -3.28180169	     -4.86486408	     -7.45760939	    -15.91507966	     30.03764572	     89.95437384	      0.00000000	      0.00000000	     -3.69695285	      8.65578649	     15.43851556	     29.52429044	     89.95437384	      0.00000000	      0.00000000
      0.07000000	     -4.55554293	      0.25479328	    -26.04533140	     -1.55117961	      0.86934195	      1.31316300	     11.87743407	     -6.08043840	    -13.22299421	    -62.97195155	     -1.09906789	    -12.03402559	    -17.30684631	     19.45947890	     24.19727088	     -1.86925623	     22.58405326	    -31.73336554	     -0.55385171	     15.21448345	     16.74742340	     12.69596282	     -2.58063565	      0.19330859	     -3.70570631	     -5.03217247	     -7.44295974	    -16.05059169	     29.23390960	     89.95437384	      0.00000000	      0.00000000	     -3.12327541	      8.80276978	     15.54592982	     29.92314206	     89.95437384	      0.00000000	      0.00000000
      0.08000000	     -4.56337810	      0.07200420	    -25.03140651	     -1.54359981	      0.87035854	      1.31557547	     13.03702048	     -5.78642792	    -12.64035093	    -63.64736309	     -1.11085605	    -10.25322591	    -17.40047908	     19.03474009	     23.41984000	     -2.03784263	     21.96149957	    -31.48939580	     -0.54959364	     15.39972834	     16.32481900	     12.23141595	     -2.73949322	      0.29677953	     -4.13670427	     -5.14861401	     -7.41660460	    -16.22852987	     28.44835735	     89.95437384	      0.00000000	      0.00000000	     -2.62154249	      8.97435274	     15.64189578	     30.50913756	     89.95437384	      0.00000000	      0.00000000
      0.09000000	     -4.57737265	      0.03577013	    -23.94802777	     -1.53574319	      0.87114838	      1.31782340	     14.26575020	     -5.75359959	    -12.23378484	    -64.19925520	     -1.12048838	     -8.23489213	    -16.96033756	     18.80853527	     22.67984335	     -2.38802599	     21.28391355	    -31.11842074	     -0.54311890	     15.51205829	     16.20447059	     11.36314454	     -2.79330858	      0.26078628	     -4.70748729	     -5.20598415	     -7.30320837	    -16.74232459	     27.59670177	     89.95437384	      0.00000000	      0.00000000	     -2.19239914	      9.10528685	     15.98377630	     31.15810982	     89.95437384	      0.00000000	      0.00000000
      0.10000000	     -4.65181152	     -0.21310566	    -22.91935069	     -1.52828255	      0.87204870	      1.32013799	     15.48741614	     -5.30575985	    -11.61546211	    -64.45542236	     -1.12495934	     -6.74928584	    -16.96352598	     18.35372690	     21.97342365	     -2.42536925	     20.56807610	    -30.88312076	     -0.53901214	     15.66878932	     15.78218974	     10.93779875	     -2.90547310	      0.47092884	     -5.08986091	     -5.38534741	     -7.32348784	    -16.82589164	     26.92571160	     89.95437384	      0.00000000	      0.00000000	     -1.58165160	      9.26729974	     16.07049237	     31.68698385	     89.95437384	      0.00000000	      0.00000000
